/* XPM */
static char *result[] = {
/* columns rows colors chars-per-pixel */
"50 50 136 2 ",
"   c #133236",
".  c #15353C",
"X  c #18363A",
"o  c #153C3D",
"O  c #18383E",
"+  c #15413F",
"@  c #163644",
"#  c #183743",
"$  c #163C44",
"%  c #193D44",
"&  c #163D4B",
"*  c #193D4B",
"=  c #173F50",
"-  c #193F50",
";  c #164345",
":  c #194445",
">  c #174846",
",  c #1A4847",
"<  c #16444A",
"1  c #1A444B",
"2  c #164B4C",
"3  c #1A4C4D",
"4  c #17504E",
"5  c #1C504E",
"6  c #174151",
"7  c #1B4253",
"8  c #164951",
"9  c #1B4B52",
"0  c #1C5150",
"q  c #20454A",
"w  c #214C4D",
"e  c #22514F",
"r  c #204455",
"t  c #224D54",
"y  c #25415B",
"u  c #28445C",
"i  c #234B58",
"p  c #2B4D5C",
"a  c #304A59",
"s  c #225252",
"d  c #265158",
"f  c #2D4F63",
"g  c #374F68",
"h  c #305465",
"j  c #4D4577",
"k  c #445771",
"l  c #4F5377",
"z  c #4B527C",
"x  c #52587D",
"c  c #4D188E",
"v  c #521792",
"b  c #531A93",
"n  c #6426A3",
"m  c #6528A5",
"M  c #772CAC",
"N  c #7A36AD",
"B  c #7729B3",
"V  c #7D39B2",
"C  c #5B5183",
"Z  c #614F8C",
"A  c #6B528E",
"S  c #635691",
"D  c #7D46AB",
"F  c #7B4DA9",
"G  c #7D50A5",
"H  c #822CB5",
"J  c #842BB9",
"K  c #823BB4",
"L  c #8748AF",
"P  c #8145B0",
"I  c #8941B5",
"U  c #8B4EB5",
"Y  c #8D4FBB",
"T  c #8D58B2",
"R  c #8C50B8",
"E  c #9E36CC",
"W  c #9D3ACB",
"Q  c #A136CD",
"!  c #A33BCD",
"~  c #A336D0",
"^  c #A739D7",
"/  c #A83AD6",
"(  c #AA3AD9",
")  c #AF3CE0",
"_  c #B23FE4",
"`  c #8E47CA",
"'  c #8E49CC",
"]  c #9747C4",
"[  c #9A4AC3",
"{  c #9049CC",
"}  c #9B4BC8",
"|  c #9252CC",
" . c #9147D0",
".. c #9D5CD3",
"X. c #A857CB",
"o. c #A458CD",
"O. c #A858CE",
"+. c #A14DD2",
"@. c #AD46DD",
"#. c #A348DF",
"$. c #B04EDE",
"%. c #A151D5",
"&. c #AC59D0",
"*. c #A352D8",
"=. c #A852DD",
"-. c #B455D7",
";. c #BD4EE7",
":. c #BD43F1",
">. c #BF49F6",
",. c #BA68E7",
"<. c #C146F7",
"1. c #C447FC",
"2. c #C549FC",
"3. c #C848FC",
"4. c #C855FA",
"5. c #CC5AFB",
"6. c #C164E1",
"7. c #CD73E9",
"8. c #D165F1",
"9. c #D46BF3",
"0. c #D86DF3",
"q. c #D364F8",
"w. c #D36BFA",
"e. c #DC6DF8",
"r. c #D17EF6",
"t. c #D37AFA",
"y. c #E172FC",
"u. c #BB8AE1",
"i. c #CF87EF",
"p. c #D682F2",
"a. c #DB80F7",
"s. c #D49EF0",
"d. c #DE97FB",
"f. c #E394F7",
"g. c #E594F9",
"h. c #EAB5F7",
/* pixels */
"< < < < < < < < < < & < < 2 4 2 2 : 1 2 2 @ 6 6 6 $ 1 , 2 < < < < 1 8 < 8 < < < 1 $ 9 2 4 + : 1 3 % ",
"; & - 6 & 1 8 8 < & = & & 2 2 3 2 > 9 2 3 * 7 6 - : 2 3 0 $ - - 6 : 9 9 8 @ = < - < 2 5 5 + 2 3 2 > ",
"2 6 = 6 & 8 9 8 & * - 6 6 , 2 4 2 2 5 2 3 * 7 6 - 2 3 5 0 * 6 6 7 7 0 8 9 & = = = < 4 4 2 > 0 3 2 : ",
"< = 6 = < 8 9 8 < * 7 6 * 2 9 2 2 , 3 4 9 - - 6 6 < 3 8 9 < 6 7 7 < 9 9 2 & 6 6 6 < 5 4 3 ; 9 3 3 : ",
"$ $ @ $ & 8 8 8 < & - 6 & 2 2 2 2 o : 1 > # - 6 6 o + > > O * * , * 9 9 9 & 7 7 - : 9 0 0 ; 3 > ; $ ",
"2 2 2 2 2 $ 8 8 < & = = < 2 0 5 % 2 2 9 9 @ 6 - 6 o 2 0 3 2 3 2 5 , 1 9 9 & 7 7 7 < 3 3 , 1 9 9 8 : ",
"4 2 2 2 2 2 ; 9 < * = - = 2 3 $ 3 8 8 7 9 & - 6 6 < 5 2 8 3 3 0 , , 2 $ 9 @ 7 7 7 1 3 , 1 9 9 9 7 1 ",
"2 2 > > > 2 2 ; % 6 = < 6 ; & 9 9 9 8 8 8 & 6 6 6 2 2 4 4 3 3 5 3 2 2 2 < @ 6 - 7 * > 7 t 9 9 9 8 : ",
"> 2 ; < < > < < . @ * * 7   % 2 1 < < 1 1 * 7 7 7 : > > > , 1 , 1 1 > , :   - - < %   3 1 , 1 , 1 : ",
"; 2 8 8 8 8 2 8 < & 6 6 < 1 , 3 2 , 2 2 , @ 7 7 6 $ 3 2 3 : 8 9 2 < 1 8 2 @ 7 7 7 $ w 3 w , , , 3 1 ",
"2 8 8 8 8 8 < 2 9 & 6 6 6 2 9 2 , 3 3 2 3 < 7 7 6 $ 0 4 5 $ 9 9 2 9 9 9 9 @ 6 7 y 1 0 5 3 , 3 5 2 1 ",
"< 8 8 8 8 6 < < < * 6 6 8 2 3 3 3 2 2 2 3 * 6 6 6 : 8 4 4 $ 8 9 8 8 9 8 9 $ 8 7 9 1 0 3 3 , > 5 3 1 ",
"2 ; < , < < > < $ @ & & * $ > ; > ; ; < 1 . & & * > 2 0 0 o < < < < < < 1 . * * - # , , , : : , , : ",
"> 2 9 2 2 2 2 > . @ 6 - $ . % 9 8 < < 1 < 8 < < < > 4 4 4 + 2 2 4 2 3 3 + X * - - # . w 9 9 r r r w ",
"> , 3 5 3 2 3 o > & 6 - 6 1 1 8 8 < 9 8 8 8 2 8 8 > 9 2 4 ; 2 2 2 > 3 > > % 7 7 7 1 9 < i 9 2 9 w t ",
"> 2 8 0 3 5 ; 2 3 * 8 - 7 9 9 ; 9 9 8 8 6 9 9 i i r s s 0 ; 2 4 2 2 > ; 3 * 7 - r 1 i 9 < 9 9 r r t ",
"2 , 2 2 2 > 0 3 3 - - - 7 2 0 9 < < 1 1 g o.+.+.+.[ ] ] } A > 1 < > > 4 4 ; 7 7 r $ i 9 9 1 1 , w q ",
"> 1 7 1 < 3 4 4 2 - 6 - 7 9 9 9 2 < 2 h O.8.3.3.w.p.! Q _ @.Z < 2 ; 2 8 8 $ 7 7 i * d 9 9 : w 3 w : ",
"1 9 9 9 < 2 4 3 2 * - 7 7 9 9 9 3 1 h &.0.q.2.9.f.f.7.! ^ 3.@.S 8 > 5 3 0 < 7 y 7 r 9 9 s ; w 5 w 3 ",
"3 i 9 8 2 3 4 5 3 * 7 - 1 9 9 t 9 a O.0.y.5.d.h.f.g.f.6.E <.3.@.S ; 3 0 5 ; 9 - r 8 d 9 w : 5 w s q ",
"2 7 9 1 , 9 3 5 2 # * * 1 1 1 r g X.9.y.y.q.h.f.g.g.g.g.-.:.1.>.@.C 4 3 w % * 1 1 * 3 1 w $ , w 3 q ",
"> * 6 * * 3 3 8 3 : 3 2 3 3 3 , T 0.y.y.e.a.g.f.g.g.g.g.f.;.2.1.3.$.p 5 e + 3 3 w 3 , , 3 3 3 w 3 w ",
", - 7 7 < 2 3 9 3 3 3 9 0 0 0 3 Y %.*.*.=.5.5.5.5.5.5.5.5.;.^ ^ / W k 3 5 > 5 e 3 5 e e w 5 e w w 3 ",
"1 - 7 7 1 9 5 5 w 3 9 3 3 0 3 , P n ` { ' i.2.2.1.1.1.1.>.~ E Q J M k s 5 , 5 5 e 3 3 5 3 e 2 3 e w ",
": * - r * > 3 w 3 : 3 , 9 3 w 3 G b m ' { u.t.1.1.1.1.1.) E Q H b I p 3 4 o 3 w 3 w , 3 3 w q w q w ",
"< : < 6 1 1 < 1 < 1 : @ : > > > i U b m ` ..s.4.2.1.1.1.~ Q H v V z 1 1 : : 1 1 > o , 3 w o w w , o ",
"9 9 9 9 9 9 9 9 9 9 9 7 9 3 t 5 w i Y v n { u.r.1.1.1._ Q J v V z 9 9 9 9 9 9 3 r > 3 s s w d d t 1 ",
"9 9 8 9 9 i 9 9 9 t 9 i 9 , 5 w 3 w f U b m | ,.1.1.:.~ H b K z i 0 r 9 9 9 7 r r 3 e s s , d t t q ",
"2 7 9 9 9 9 9 1 9 7 9 3 s , e 3 w 1 3 p U b m  .<.2.( J v N z 9 9 i 9 r 9 3 7 3 t > t e s q s e t q ",
": # * - * 1 7 : : % * q * 3 5 2 3 X w 3 t L b m #.:.J v K j * * 1 % 3 < 1 # 1 * : % s s s + w e w 1 ",
"1 7 r 7 8 d 9 9 7 r r r 7 e e , 3 5 5 3 5 u R b n B v V x 7 7 7 7 r i 9 r : 7 r r 1 s s e q s s w q ",
", 7 7 - 8 9 9 9 , 7 7 7 1 3 5 3 3 w 3 , 5 & u U c c V l 2 * 7 - 7 < 9 9 3 * 7 r r 3 s e e w d s w w ",
"1 - 7 7 * r s 0 1 7 r * 7 3 , 2 3 , w 3 3 * = f F D z 2 3 $ * - r : 9 9 9 @ 7 r 7 , s s s q e e w q ",
", : 1 1 : : 9 9 1 - 7 7 q 9 3 9 > 1 1 3 : % 6 - = o ; ; ; , > : > : 9 9 9 @ 7 7 r q s s e q q , 1 % ",
"3 3 3 3 3 3 1 9 9 7 r r * > 5 o 1 i 2 t i * - - 6 < 2 3 5 2 3 3 2 2 < : 9 % - 7 r q t t : t d t t , ",
"3 s 3 5 3 3 3 2 1 7 7 7 7 3 > 1 9 9 9 9 0 & 6 6 6 ; 5 2 5 3 3 2 3 3 3 $ 1 * r r r 1 w , d d t t i , ",
"0 0 9 s 3 3 3 w O * 7 r i X , i 9 9 i r 9 * 6 7 8 : 3 3 3 5 3 t e 3 3 w , . r 7 r : X t t t d t t r ",
"> % : 1 > 1 $ < % # * * % O 1 , , > > > > * - 7 6 . : > > % : > > % % > * . - * 1 O : , , q q : > % ",
"3 3 9 9 9 9 9 9 1 * 7 7 9 w 5 3 3 3 3 3 w * 6 - 7 1 5 0 0 : i i 9 9 9 3 9 & 9 7 7 r s 5 5 e w s 3 q ",
"3 r 9 9 9 9 1 9 1 * 7 7 7 3 5 5 5 3 5 , 3 * 6 & 7 1 3 5 0 , 9 9 9 9 i 9 8 $ - 7 7 q 5 5 3 e w e t w ",
"3 9 9 9 9 8 9 2 1 * 9 7 r , 5 3 9 3 3 3 w @ 7 - < 2 0 4 2 : 9 9 9 9 9 9 9 $ - 6 9 * 2 e w w 3 w w q ",
", ; 1 2 ; : ; ; X @ * @ @ X 1 1 ; < , 1 1 : < & & ; 0 0 0 $ > > : , 3 , :   # - 7 O X 1 1 > 1 1 : 1 ",
", 2 2 2 2 2 4 + O & - r 7 * 1 9 9 9 9 7 9 9 8 8 9 < 9 4 5 > 3 4 , 3 3 , + . 7 7 7 * > , 9 r 9 9 9 9 ",
", 5 2 < > 2 ; > 3 * 6 7 r 8 9 : 9 9 9 9 < 8 9 8 2 2 4 2 3 > 4 2 3 2 2 $ 9 : 7 r r 1 r 1 3 9 9 9 0 r ",
", 5 3 3 3 > 2 2 2 * 7 7 r 7 9 3 ; 8 9 9 9 9 9 8 8 2 2 2 5 > 3 5 8 2 ; 3 3 : 7 7 7 q 9 9 : 1 i 9 t 3 ",
", : ; ; ; , 3 2 3 * 7 7 * 3 9 9 9 O : : 1 # @ * % % 4 2 5 $ ; $ > o 5 8 9 : 7 7 7 7 9 9 9 : , > + % ",
"3 9 9 9 2 9 2 2 1 * 7 7 7 9 9 9 9 , 3 5 w * 7 - 6 < 3 5 0 1 9 9 9 > 5 4 3 1 7 7 r 1 9 9 r : s t e w ",
"2 9 9 8 3 2 9 3 3 * 7 7 6 9 9 9 3 : 5 9 s < 7 7 8 , 0 0 0 2 9 9 8 < 5 4 9 < 7 7 7 1 s i 0 > 5 5 e w ",
"1 9 9 9 1 3 5 3 2 % 7 7 * q i 9 3 : w 3 e * r * i , 3 9 5 3 9 9 9 > 3 3 0 $ 8 7 7 q i r 9 , 3 3 e q ",
", # 1 * % 9 5 9 2 . $ > % : 1 , : : > + , : O % : , 3 s 5 # * : $ % 5 3 0 $ : : 1 % > , , : : > : : "
};
