/* XPM */
static char *result[] = {
/* columns rows colors chars-per-pixel */
"50 50 245 2 ",
"   c #10100E",
".  c #0C191A",
"X  c #15191B",
"o  c #350E17",
"O  c #0B251F",
"+  c #333A19",
"@  c #0C1E22",
"#  c #121E21",
"$  c #2B1726",
"%  c #0B2323",
"&  c #092926",
"*  c #0C252B",
"=  c #0D2C2B",
"-  c #13252A",
";  c #172628",
":  c #132A2C",
">  c #0C322C",
",  c #14302F",
"<  c #0C2B31",
"1  c #142C33",
"2  c #182D35",
"3  c #0E3634",
"4  c #143336",
"5  c #14343B",
"6  c #1A3739",
"7  c #153B3D",
"8  c #272F2C",
"9  c #223B3A",
"0  c #4F0E09",
"q  c #58130A",
"w  c #721307",
"e  c #4F2815",
"r  c #0E483B",
"t  c #11473D",
"y  c #304632",
"u  c #6F671B",
"i  c #504F32",
"p  c #654B30",
"a  c #55632A",
"s  c #707028",
"d  c #083945",
"f  c #153B43",
"g  c #173847",
"h  c #1A3C44",
"j  c #1A3D4B",
"k  c #1A3E51",
"l  c #263A48",
"z  c #303451",
"x  c #393E62",
"c  c #4D1945",
"v  c #51396E",
"b  c #622469",
"n  c #0B4D49",
"m  c #154244",
"M  c #1A4345",
"N  c #194947",
"B  c #16454B",
"V  c #1A444C",
"C  c #164B4C",
"Z  c #1A4C4D",
"A  c #13554B",
"S  c #1D514F",
"D  c #164351",
"F  c #1B4353",
"G  c #184953",
"H  c #1C4C53",
"J  c #1D4B5B",
"K  c #1D5254",
"L  c #185A55",
"P  c #1D525B",
"I  c #274649",
"U  c #224353",
"Y  c #264956",
"T  c #344A56",
"R  c #215253",
"E  c #26545D",
"W  c #335453",
"Q  c #156355",
"!  c #12725C",
"~  c #2C6355",
"^  c #1D5462",
"/  c #1C5B68",
"(  c #075F79",
")  c #3A4766",
"_  c #255B67",
"`  c #315A67",
"'  c #137968",
"]  c #086C77",
"[  c #1A6674",
"{  c #3C626B",
"}  c #266779",
"|  c #327079",
" . c #425755",
".. c #706C5F",
"X. c #494673",
"o. c #57447A",
"O. c #446B75",
"+. c #4D7074",
"@. c #861306",
"#. c #961606",
"$. c #A91503",
"%. c #B31805",
"&. c #C71E06",
"*. c #D62308",
"=. c #ED2304",
"-. c #904B19",
";. c #AF5510",
":. c #D36413",
">. c #18836C",
",. c #0F8B79",
"<. c #188C75",
"1. c #18957A",
"2. c #20917C",
"3. c #688377",
"4. c #A99518",
"5. c #BDA310",
"6. c #958E26",
"7. c #CEB00C",
"8. c #EFC809",
"9. c #D4C236",
"0. c #9FAE5B",
"q. c #732B80",
"w. c #15758B",
"e. c #246E82",
"r. c #286C81",
"t. c #287588",
"y. c #357787",
"u. c #2C7D92",
"i. c #357E93",
"p. c #594780",
"a. c #734E90",
"s. c #4A7985",
"d. c #5E7F88",
"f. c #726B90",
"g. c #A53BAC",
"h. c #C032BF",
"j. c #874B9B",
"k. c #9250A7",
"l. c #A951B6",
"z. c #9961AF",
"x. c #D937DA",
"c. c #BC53C7",
"v. c #B96CC6",
"b. c #CC4BCF",
"n. c #DB5ADD",
"m. c #CF72D5",
"M. c #DC5AE0",
"N. c #E654E9",
"B. c #DD7AE2",
"V. c #ED71EF",
"C. c #1C9C82",
"Z. c #1B8598",
"A. c #3A818F",
"S. c #2A859A",
"D. c #33859A",
"F. c #19A78A",
"G. c #1AAA8D",
"H. c #1BAE91",
"J. c #1BB394",
"K. c #18B898",
"L. c #22AC90",
"P. c #21BE9D",
"I. c #1A8EA1",
"U. c #1B96A6",
"Y. c #2B8BA3",
"T. c #358FA6",
"R. c #2695A9",
"E. c #3794AB",
"W. c #2C97B2",
"Q. c #3499B4",
"!. c #1FBFA1",
"~. c #24A2AF",
"^. c #37A2BC",
"/. c #4D878D",
"(. c #5D828B",
"). c #58858C",
"_. c #498C94",
"`. c #598B94",
"'. c #589298",
"]. c #698787",
"[. c #638992",
"{. c #6B949C",
"}. c #4A8EA0",
"|. c #4496A9",
" X c #5696A4",
".X c #469FB6",
"XX c #489EB5",
"oX c #6598A6",
"OX c #46A1B5",
"+X c #48A3B8",
"@X c #58A6B7",
"#X c #68A7B5",
"$X c #73AAB8",
"%X c #79B2BD",
"&X c #1AC8A6",
"*X c #11D5AF",
"=X c #14D7B1",
"-X c #1EDDB7",
";X c #1EDEBA",
":X c #23CAA9",
">X c #25D0AE",
",X c #2AD0B0",
"<X c #23DBB7",
"1X c #21DDB9",
"2X c #0EE6BC",
"3X c #16E5B9",
"4X c #16E6BE",
"5X c #1BE3BC",
"6X c #15E9BF",
"7X c #21E0BB",
"8X c #37A9C6",
"9X c #3DB4CE",
"0X c #4FB0C6",
"qX c #47B3CD",
"wX c #4ABAD5",
"eX c #68B6C9",
"rX c #76B7C8",
"tX c #6DBDD3",
"yX c #37C0DA",
"uX c #0FEEC4",
"iX c #16E8C2",
"pX c #13ECC2",
"aX c #0DF1C6",
"sX c #0BF5C9",
"dX c #07F8C9",
"fX c #11F0C5",
"gX c #4FCADC",
"hX c #53C3DC",
"jX c #6BC4D7",
"kX c #77C8D9",
"lX c #56C9E1",
"zX c #6FCCE3",
"xX c #79D4E8",
"cX c #86B9A7",
"vX c #93C2A4",
"bX c #87BCC6",
"nX c #D584DC",
"mX c #DD88E1",
"MX c #E787EA",
"NX c #F28BF4",
"BX c #F094F1",
"VX c #F4A6F4",
"CX c #87C8D2",
"ZX c #88D8EB",
"AX c #93D8EA",
/* pixels */
"B C C B j D D k F N Z C Z Z Z Z C Z Z N j D k J k g C A H K N B A H H G G Y j.l.a.M j F F J F Z R H ",
"B B G B D k k D F m A H H C Z B H Y T Y z X.a.v.k.x Z G K Z N f ) z.Y J P l.N.N.N.X.j F F F F Z H S ",
"G G G B k k D g 2 2 l k S n A ) k.M.B.m.m.MXm.V.NXnXf.p.f.) Y o.MXBXb.o.p.N.h.b c c z z F F U N R S ",
"f m m 4 2 g # q %.$.o z l v l.V.NXBXM.q.v z v mXh.V.NXV.B.B.M.NXl.c.NXV.N.M.c #.=.&.0 z j g g 4 7 M ",
"C C m 4 g l 0 *.=.=.*.o b.V.V.l.X.v B.k.G G a.B.z o.n.v.T g.MXk.Z ) MXx.V.b @.&.=.=.&.$ F k j 4 5 H ",
"S M 7 m j z 0 %.%.$.$.0 h.M.X.B G n a.nXY J v.k.H t v.l.N Y B.a.H Z v.V.N.c @.$.$.$.#.$ U D V M Z Z ",
"m 7 A C k k # 0 @.$.#.o n.l.H G G C ) mXp.v mXX.H j nXj.Z U m.a.C A o.VXk.j o @.w q X g F F k F H V ",
"m A H B D F F 2 - o c b.V.v G H G G Y m.BXBXm.F G l nXl.b g.NXj.C A S j.) N g 8 $ g V _ g l F V R H ",
"C Z H C k t.8XW.D.Q.b n.B.Y V V N B V ) v v x B B 7 p.NXMXm.a.l C N C C B B 7 e.8X^.8XQ.h k F h J H ",
"Z A Z N k J [ u.Y.W.7 v p.H f M B N C m g g f k f 7 R a.j.T B 1 f m f B 7 A : ^ e.e./ P P h F h J R ",
"A Z A 7 Y.8XQ.[ [ t.g 7 H H B Z A N 3 4 g j j B D V K K C 7 : 4 G G F B m A - S.S.S.Q.8X8XJ 2 N J H ",
"H Z S f _ t.W.^.T.W.^ 1 H R f f 4 2 }.@XeXtXjXjXjXjXkXjXjXtX Xs.@ > 5 j m C % } t.Y.S.} J g j N R R ",
"K C S N g g g g 1 1 1 f Z -  .[.{.W +Xt.t.E.9XwX9XwXhXhX9Xe.u.i.T +. .; : Z 3 4 % V @ 2 h k V U H J ",
"A C S m g D k } r.% { y - ).[.bXrX` } +XQ.} wX9XwXhXwX9XZ.A.9X_ s.rX{.oXI : /.+.1 u.5 J U U U V K R ",
"H Z K N f f h 4 W #XgXR { rXrXzXlX` } u.e.w.9XwXhXwXqX8XR./ Y.B D.lXzX%XrX9 R.gX#XT # h m M M 6 h h ",
"Z Z C N N H M ).tXyX[ R CXkXlXwX+XE S.e.u.8XwXwXwX9X^.Q.W.e.^ ^ y.0XhXzXCX#X4 ~.9XjX+.6 K I S S H Z ",
"S Z Z N C S O.zX8Xu.6 rX..+.0X_ 6 5 f S.I.R.R.U.R.I.Z.w.] [ [ & f Z 0X/...cX).h Q.8XkXl R Z S S S S ",
"S Z R Z Z C /.qXT.# #XrX-.;.H / V 1 * Z.I.I.I.U.I.I.I.I.U.I.Z.O 4 ^ } p :.d.AXO.V ^.eX9 S Z S Z S S ",
"Z S S N Z Z T OX: `.ZXjXO.y / D > A Q L U.~.~.~.U.~.~.U.U.U.P ! A % / H T 0XZXCXT _ }.: R R Z S Z R ",
"N N Z M m N # h { {.'.hXqXe.C > 1.H.H.' ' ' ' ' ' ' Z.,.,.,.! G.H.L = [ Y.hXOX].#X9 2 , Z C N M I N ",
"V G V V V V . l #X;.-.|.e.P > 1.H.J.K.K.&X3XuXpXpXsXsXpX=X4XuX&XG.G.A < / S.p :...rX# 6 V V N 7 Z Z ",
"H H H H F g ; CXtXi i r.P & >.H.J.K.&X5XpXiX-X5XfXaXfXiX5X3X5XuX*XH.G.r 5 [ I p '.AX`.. N U Z h S R ",
"H H U H l X $XxXhXhXt./ % ' H.J.&X3X5X5XiXpXpXfXiX;XpXaX5X5XiX3X5X2XK.F.3 7 t.qXlXzXAXO.# H Z M Z S ",
"H H H Z   O. .i 0Xu./ @ ' H.K.2X2X5XfXuX5X<X-X-X;XuXaXpXdXiXpX;X-X5X2XK.C.> f S.0X .p oXI 2 H M R R ",
"H H H - O.+.:.:.I ^ & Q G.H.*XiXiXaX6X1X<X-X6X6XfXiX5XiXdXaXpX6X6X5XaX*XG.<.O N [ ;.:...%X2 6 t R S ",
"V f 4 ; s.'.e e 4 5 r F.H.&X6X-XfX-X1X1X5X5X5X5X5X4X6X5X6XdX;X<X1XpXaX6XK.G.! O H e w s.cXO.. I R R ",
"H H 6 V s.wX0Xj C & F.G.K.uX4X-X6X1X5XfX4X5X5X<X-X-X5X5X5XiXaX-X<X1XpX5X>XH.F.A : P XXwXtX` - M R R ",
"H H g J }.qX| 7 7 n F.G.*XuX4XiXaXaXfX4X7X1X1X1X1X5X5X5X6X5X5X5X1X<X-XiX<X!.G.1.& P y.T.eXr.: 2 y N ",
"H G 5 J T.|.I O.9 N F.&XpX4X6XpXpXaX5X5X5X5X7X<X<X<X<X<X4X5X-X5X5X<X<XiX3X=XJ.1.= Y O.I @X} ; w @.q ",
"H G 5 J |.i.s.xXkX/.Q *X5XpX1XaXdX4X5X5X5X1X1X<X<X<X<X<X1X1X<X4X5X5X<X-X5X6XG.A #XxXxXE  Xr.; @.%.#.",
"H H g J E.y.}.xXAXzXL =X6X6XiX6XdX6X5X5X7X<X1X<X<X<X<X<X<X<X<X<X-XpX1X5X5X6XG.| ZXZXxX` }.r.; q q 8 ",
"R H 5 ^ T.t. XAXZXxXQ &XsXpXfX<XfX6X5X-X<X<X<X<X<X<X<X<X<X<X<X<X5XuX-X5X5XpXF./.xXZXAX` A.e.- 8 I E ",
"h h % _ T.t.#XZXZXZXQ :XpXdX5X<XpX6X5X1X1X1X<X<X<X<X<X<X<X<X5X<X5XaX-X6XiXpXG._.ZXZXZX{ i.e.1 9 I N ",
"d ( d J T.t.oXZXxXzXL :X5XsX3X<XpX5X5X<X<X<X<X<X<X<X<X<X<X<X7X<X5X6X4X5XsXpXG._.xXZXZX{ y.} 4 ; I ~ ",
"w.w.d ^ Y.y.oXZXxXjXQ :X5X3XfX1X5X6X7X<X<X<X<X<X<X<X<X<X<X<X5X5X6X4XiX6XsXfXL.2.zXxXZX{ t.} 2 w @.e ",
"( w.d ^ u.t. XzXeX| ' P.iX3X6X<X<X5X5X1X1X<X<X<X<X<X<X<X<X5X5X5XpXpXpXpXiXfXL.S  XjXzX{ | _ 1 w $.%.",
"( n < ^ e.S.2 6 : A G.K.7X5X6X5X<X1X5X5X<X5X1X<X<X<X<X<X5X5X5X5XpXdXaX5XiXpXK.F., 6 I h y._ 4 q w e ",
"d * @ ^ e.8XE._ I r G.H.>XfX4X5X<X<X3X4X5XiX5X5X7X7X1X1X5X5X4X6XdXiXiX3X-XiXK.C.> } ^.qXi._ 1   I ~ ",
"< k < g P 8Xu.N '.. 2.H.&X7X3XpX5X<X7XfXiX5X5X-X7X1X1X1X5X5X5X6XpXpXpXiX6X*XH.' 6 @X_ 0X} g * 7 7 ; ",
"< k d @ f J 3 i %X{ t F.H.,X5X5XaX5X<X5XaXiX4XiX5X5X5X5X5X3X-X1XiX5X4XiX2XH.F.3 @X0.9 2 % 5 - 8X# 8 ",
"& G H # 1 5 + 8.9.CX4 ! G.P.1X6XpXaX4X6XdXdXpXpXpXaXpXpX5X<X<X5X6X5X6X6XK.F.A s.vX8.4.1 5 @ } D.  8 ",
"* h f 2 . g a 8.s '.#X& 2.H.:X6XpX6X5XpX5XsXpXpXiX1X1X1X<X1X4XdXaXaXfXP.F.>.R #X` 5.7.y < g Q._ y._ ",
"* Z 6 6 . @ h a r 4.CXs.> F.J.:XfX6X5X6XiXiXuX5X1X1X1X1X<XiXaX4XfX6X:XG.1.t eX0.a t i 3 . | t.e.u.^.",
"V B # 5 9 - 1 f 6.8.9.kXW Q F.H.:X4XfX3X6X5X4XpXiXuX6X6X4X5X6X4X<X!.G.C.t `.3.7.8.i f @ l - ^ u.[ Y.",
"^.E.h ; @X}   d u 7.y '.rX: >.F.G.P.5X6X5X5XiXfXdXsXpX4X6XpX1X>XK.F.F.Q ` oX4 u 7.y 1 - E.{ X f J P ",
"Q.D.H ` wXQ.D @ 7 8 6 4.cX'., 1.F.G.G.:X6X6XfXfX5X-X1X-X5X>XP.G.L.F.>.6 $Xs u 4 , f @ e.8X0X6 h f f ",
"D.D.6 }.T.Y.t.. * & u 7.6.#XI r <.<.<.1.1.F.G.G.L.L.H.F.1.1.<.<.<.>.X /.W 4.5.+ < % V S.Y.|.` 2 g B ",
"`.(.[.[.[.`.`.(.d.d.].].d.[.[.d.).).`./.`.'.`.'.'.'.'.`.'.`.`.).(.(.(.].].].].].d.d.(.[.`.[.[.d.d.d.",
"OXOXOXOXOX+X.X.X.XXXXXOXXXOXXXOXOXOXOXOXOXOXOXOXOXOXOXOX+XOXOXOX+XOXOXOXOXOX+XOXOXOXXXXXXXXX.X.X.X.X",
"P K K K F J J J J H P P P E V K K R E R J J J J J Z L P E L K E P K P P Z R L K K H J J J J E F _ E "
};
