/* XPM */
static char *_bfdeacfda6f4ae9882aa40be9c3df00gPJEw4VslG9piGh2[] = {
/* columns rows colors chars-per-pixel */
"50 50 70 1 ",
"  c #033537",
". c #04353A",
"X c #0A353E",
"o c #033C3E",
"O c #01403F",
"+ c #053541",
"@ c #093541",
"# c #033D44",
"$ c #0A3943",
"% c #033D4B",
"& c #0C3D4C",
"* c #103947",
"= c #113E4D",
"- c #013F51",
"; c #014345",
": c #014947",
"> c #02444B",
", c #01444D",
"< c #00474D",
"1 c #01444F",
"2 c #03454F",
"3 c #02474F",
"4 c #0A424F",
"5 c #014848",
"6 c #02484A",
"7 c #014B4A",
"8 c #034B4B",
"9 c #004C4B",
"0 c #034D4B",
"q c #02484D",
"w c #004C4D",
"e c #004E4F",
"r c #13414F",
"t c #01514D",
"y c #004253",
"u c #004353",
"i c #034253",
"p c #054351",
"a c #064553",
"s c #004254",
"d c #044356",
"f c #004456",
"g c #044455",
"h c #074454",
"j c #084455",
"k c #0A4555",
"l c #014850",
"z c #004A52",
"x c #004C52",
"c c #004B54",
"v c #004D54",
"b c #004C55",
"n c #004D55",
"m c #004F57",
"M c #094F56",
"N c #024558",
"B c #014758",
"V c #054658",
"C c #0B4758",
"Z c #124251",
"A c #134858",
"S c #194A59",
"D c #005050",
"F c #005151",
"G c #005451",
"H c #005453",
"J c #005057",
"K c #0A5155",
"L c #025158",
"P c #0B5158",
/* pixels */
"ys#mxz#yyy<xwDt9wDx%fuy;twxqffsuJmz<sy%%xxtw9Dxt+y",
"sy%mmz#%ff%ttwt9tDt%uuf;DDwqssp<Jxz<ssyytttw5xt9+s",
"#%#xxz#ssfytxxt;>::%yyuo;;;#%%4#xmzaffs%tDDx;5;;+s",
"wwx;xz%ssy%tDt#xzmJ@uyf#wDtttDDw;mx5hff<xxw5mmmz%s",
"w95t;z%syy<z5;zzczx%ssf;ttDxDtx9x#w<ffyytw>mzmcz%f",
"599ww;#sfu<;;mmzxzx%ssf;xxttxt9twq;%ffsg;;mmczzw-s",
";5>;5;.%%%u.#q5><:q+fyB#9:;;9;9;;5;.%2>% ;55><><%s",
"mmczmz>sffuwDDDwwxw%sff#ttw;mmmzzmc>BhBpwDwDwtwt$p",
"zczyqz>sssyDtxtxwDt%fssoDxt;xxmzzxx<ggspDHt99txt@g",
"czxqwy>yssutxtwtDwx%ffs#tDx;zxmxxzz<ksyjDt9099xD+k",
"wf<<<w#%y%>;:;5;;55.u%<;Dtx;5w>qqqx;%h%<;9w69650X%",
"wwD5w;.%y%% >fwzxwqy<qq;Dwto5www9w: %-s%.xzzxxKxas",
"DDtxto;sssyx<mczzzzzzzz;Dtt:xtt5wto;hfs4x2Jxzzxxxx",
"DDxtOt9sssyJx;zzmzzzwyx;Dww;txDwtOxwBshpxJ;mmxzxmK",
"Dxw;tt5fyygzmz5<wzqz><w#tDt#9wx9;Dt>Nskp<mmqDzqKxM",
"wq;Dtx5Byspmcmc5w99+%y%;twwo>q:;DDD<sgCpcmmw;www@&",
"mx;DDt>syypJmJxwxDH%uuy;tww>mmz;DDD9hhppxJLz;tDH*C",
"mx;DDt;hfyhJzmL9wwD%yyy5t9w9xzz:DxDwkfa4mJm<xtHH&C",
"zx;DDD5%yhpxJxx;xtt%fyf;t9x5xzm;DDt0ahk4xHmw;ttK&k",
"%%#DxD;;;5;;;9:999:;;;:OxwD#%%%#DDD9;5<>;;;;;95;>;",
"sf#DDD9DxDDHDDDDw9www:tOttt$Bjg%tDDwDDDtDDtDHtDtwt",
"ss;JDt:xDDDDttHDt959::9;wxw%pNs#xDtDHDDtxFttD9KDtw",
"Np%txt:xttDJtHtwxwDwtwx;txx#-gg>wtt:wtttttxttDt0DD",
"><#;#>;;##;;;O;;:>;.#%%.#;>>#>>#%;;#;>#;;;6;&;;;@4",
"ccczmzcmzx9DDDtzzmm%sys>mzzzzxzmxzmmzzz2wtHtMLMm&C",
"mccmcmccmzzwHDtxmmz-sys<xzzzzzzmmmzczxxxDHHKaPzMkS",
"zcmcmxmczzmtDDHxmmm%sss<mzmzzzxmmzmmxzz<wHHtxKHK=A",
"#>%;>#;%%4#HDtH.;5;%ssso;;;#%%<;;>##<%%oHHHt#55;=S",
"gg<Lcz<jCCpHtttDttD%yys;ttw2ygspmxmqhkkqtKHtKKtK=A",
"Np>Jmz>NyhpHtxttwwt%yss;twx2psgpmmz<fCC4DDDttHHtZC",
"sg4Jmc>NhyaDw9Dwtxt%yys;xDx>psszmmmukhCutHKDwKDKZS",
">>#aLc>ghfptwx;>wq5%yyfo5;;#>>>;xmx5hCh4DHK00>;;*S",
"xtt:mz<gjg<xx52Dzmm%hys>xxttx9t9;wm<ykC4DK0qPPxP*S",
"wxDw5zajyg2t0#mmzzm%yys;wttxtxw9t;<<fkC4D92PPKmm&A",
"tDwtx5$hgjpo%mxmmmm%ysB;Dwwtwtwwwx;#fphh;4HKHKDKkA",
"<q5;;;X$%%>X;wq;q;;%yys.;95;;5;##;>.%44u.;<qa4;;ZN",
"mmmmzm>jNhawtDDttDt<yyf#tDx:mxmmxxx<hfkpDHHDtKDD=p",
"mzxmzz%yBkaHDDtxtwx%y-y;xtt<mmmzJmzaBhspDDtDDDtt4f",
"mzmzzx>yBsaDtwDtx9w%fys5DHtwmmmztmz<fsfjtDxDttDx4C",
"<q>:>;o@%<%o9w5;55:@%<<oDDD;>;:<w<q#@%h<o5w55q55$Z",
"Dtwtt:.%Nj>$zmmmmmcmczm;DDt;DDxttt: %gh%#zcmcmzmmD",
"w99w:o>ysjpmqqxmzzzzzzx;Dtx:Dwtxw::>ggj4c5<mmcmcmK",
"D99:;t5ksNgmm>zxmzzmzzz;HDw:DDww59t<Bgchcz>qmxzmux",
"55;9xt;aNspmmc5;q55%>#>;Dt9;995;9Dx<CNhhmmm;>q>;<<",
"zz;zDx;u-pgLzmm5HDH%Bgf#xtxwzzz;tDt9hhhpxxmw9HtD&h",
"mz;twD6hdy<mmzD:tDD<pps5tDtwmzx5wxwwffNpmJma9tDH&k",
"mm;txw>ssd%mmmm;DDx&N-y:Dtwzmzm;Dtx>fsj<MJHq9tDH@C",
"<q;xDt2%%%%>><:O5;w$>&4;Hxt<wy<;DDt6$%%&>>>>O069X4",
"hy;wxD5:Dw9Dtxw999Dx95D;DDD>a2&#Dtt9wxtwx9twxt9wxt",
"py#ztD:xwttDttDww9wtttw:DtDakkk>DDxtttxttttDxttttt"
};
