/* XPM */
static char *_f0257bb180e400194e909a05f8a85d98Q6QNiNd0Ukc88sr[] = {
/* columns rows colors chars-per-pixel */
"50 50 203 2 ",
"   c #0B0C0B",
".  c #141D0C",
"X  c #0E0F15",
"o  c #0B1216",
"O  c #0F151A",
"+  c #101215",
"@  c #11161A",
"#  c #13191D",
"$  c #181D18",
"%  c #17230B",
"&  c #172210",
"*  c #1E2814",
"=  c #1D2818",
"-  c #212A1B",
";  c #23321A",
":  c #2B381F",
">  c #161C22",
",  c #191E24",
"<  c #1A1E2A",
"1  c #142127",
"2  c #1B2126",
"3  c #16232A",
"4  c #1C232B",
"5  c #112C2E",
"6  c #1A2A2D",
"7  c #19372F",
"8  c #1B2531",
"9  c #142C33",
"0  c #1C2A32",
"q  c #152F39",
"w  c #1D2E39",
"e  c #143335",
"r  c #1A3235",
"t  c #1B3A37",
"y  c #14353B",
"u  c #1C343C",
"i  c #153B3D",
"p  c #1B3B3D",
"a  c #21252D",
"s  c #252A2C",
"d  c #2B3C22",
"f  c #273828",
"g  c #383420",
"h  c #333C22",
"j  c #222632",
"k  c #242B35",
"l  c #292D34",
"z  c #252D3A",
"x  c #282E3A",
"c  c #27373B",
"v  c #25323D",
"b  c #2B323D",
"n  c #333A3A",
"m  c #343A3D",
"M  c #482E21",
"N  c #453424",
"B  c #2B431E",
"V  c #17403F",
"C  c #2B4525",
"Z  c #374827",
"A  c #365225",
"S  c #375329",
"D  c #3A5429",
"F  c #3B5829",
"G  c #2D4B3A",
"H  c #375735",
"J  c #435C2C",
"K  c #45662F",
"L  c #46682D",
"P  c #496B2E",
"I  c #466730",
"U  c #486732",
"Y  c #476831",
"T  c #4C6D31",
"R  c #4F7230",
"E  c #537632",
"W  c #567934",
"Q  c #597D33",
"!  c #153542",
"~  c #1A3643",
"^  c #153C43",
"/  c #193C44",
"(  c #173C4A",
")  c #1A3D4A",
"_  c #163F51",
"`  c #263341",
"'  c #2A3443",
"]  c #243D45",
"[  c #2D3A44",
"{  c #2E3B4C",
"}  c #303643",
"|  c #343A44",
" . c #343C4B",
".. c #393E48",
"X. c #283E50",
"o. c #313C51",
"O. c #164244",
"+. c #194345",
"@. c #164947",
"#. c #194947",
"$. c #16444B",
"%. c #1A434B",
"&. c #164C4C",
"*. c #1B4C4D",
"=. c #1C504E",
"-. c #174251",
";. c #194152",
":. c #1C4353",
">. c #174951",
",. c #164A52",
"<. c #194A52",
"1. c #1B4E51",
"2. c #1D4D52",
"3. c #1C4C53",
"4. c #1D4D55",
"5. c #1D5151",
"6. c #1F5258",
"7. c #2B4643",
"8. c #234B44",
"9. c #24434C",
"0. c #214D4D",
"q. c #3F4341",
"w. c #34424E",
"e. c #3B434D",
"r. c #22504F",
"t. c #214554",
"y. c #294550",
"u. c #224D54",
"i. c #264F58",
"p. c #364255",
"a. c #3B4353",
"s. c #3D4853",
"d. c #35445B",
"f. c #3A475D",
"g. c #3D495D",
"h. c #225252",
"j. c #384761",
"k. c #384A64",
"l. c #3A4A64",
"z. c #3E5371",
"x. c #414653",
"c. c #404951",
"v. c #484D55",
"b. c #484F56",
"n. c #434C5B",
"m. c #5D734F",
"M. c #607456",
"N. c #444D63",
"B. c #474F65",
"V. c #495566",
"C. c #46546C",
"Z. c #4B556A",
"A. c #525A65",
"S. c #5D5F67",
"D. c #535D6E",
"F. c #595E6B",
"G. c #475875",
"H. c #4B5A75",
"J. c #475B78",
"K. c #505C72",
"L. c #515F7B",
"P. c #59636D",
"I. c #4E607C",
"U. c #5C6471",
"Y. c #5A6575",
"T. c #54627C",
"R. c #5A667E",
"E. c #636D7B",
"W. c #67717F",
"Q. c #61823E",
"!. c #718955",
"~. c #7B9361",
"^. c #849F63",
"/. c #859579",
"(. c #8E9E7A",
"). c #556683",
"_. c #596A86",
"`. c #5A6B89",
"'. c #5E718D",
"]. c #636F86",
"[. c #697588",
"{. c #737D8D",
"}. c #6C7C94",
"|. c #707F97",
" X c #7F858F",
".X c #758094",
"XX c #76849A",
"oX c #7D8A9D",
"OX c #758AA8",
"+X c #828C99",
"@X c #9CA98E",
"#X c #A8B98D",
"$X c #858FA1",
"%X c #8895A6",
"&X c #909EAB",
"*X c #93A2AE",
"=X c #B3C49E",
"-X c #B5C4A4",
";X c #BDC9B3",
":X c #C3CAB0",
">X c #ACB7C7",
",X c #ABBAC4",
"<X c #B7C4D2",
/* pixels */
";.-.( ,.3.,.$.~ ;._ ;.O.*.&.*.&.@.*.*.=.^ :.;.) ;.&.*.&.&.$.;.;.;.$.4.4.<.,.( _ _ ;.O.1.&.&.=.#.=.&.",
"-._ $.,.,.,.$.( ;.;.;.O.&.=.&.&.@.*.*.=.( -.-.;.$.&.5.&.5.$.;.;.;.) 4.4.,.$.) ;.;._ O.*.,.=.=.&.5.=.",
"! %.^ ,.&.,.$.) ;.;.;.^ &.&.5.#.^ O.$.&.! -._ ;.$.i O.#.+.^ ) ) %./ h.<.,.1.) ;._ :.( 5.5.*.*./ *.@.",
"&.&.&.^ ,.,.$.) -.-.;.O.1.&.&.O.*.*.*.^ 9 ! y ~ ( O.&.*.&.#.*.,.*.*.$.*.<.3.! ;.:.:.$.*.*.#.%.3.4.:.",
"@.&.&.#.^ <.$.( $._ _ O.*.*./ y.t.u.p @ @ 2 s : C H H G 8.#.*.=.*.&.*.p $.3.( :.;.:.$.*.*.+.u.4.<.<.",
"@.@.&.&.&.^ $.( ;.:.;.O.#.r n.Z.R.R.} X X = Z P T Q Q.Q ~.@X!.8.&.&.&.&.O.$.~ :.:.;./ #.+.u.3.3.<.<.",
"&.@.#.&.#.&.y ) _ _ <.c m b a.f.G.G.l.4 , : Z L R Q Q Q ^.#X-X!.H 8.&.$.*.i ! _ ;.;./ e u.*.3.0.*.$.",
"$.$.$.$.$.$.^ ^ ( ] ] l 4  .p.l.G.oX+X&XV.n Z K E Q Q Q Q W Q Q =X/.t %.$.%.! ) ) $.^ O.O./ O.O.O.%.",
",.,.,.,.$.,.&.( ( 0 > 4 k p.f.l.H.*XC.$XC.c.Z J E Q Q Q Q Q Q W ~.:X/.$.:.3.( _ t.:.%.5.h.*.*.*.0.*.",
",.,.,.$.$.,.,.( w 8 u 6 9.n.n.C.L.OX&X*XH.F.h Z E Q Q Q Q W T I I !.;XM.*.<.! :.:.t.%.5.=.&.&.#.*.*.",
",.,.,.$.,.,.*.) 4 ! 3 t y.N.N.C.J.I.).XX.XT.n B T Q Q Q W L I I I I !.-X7.6.! :.:.:.%.h.=.*.*.#.&.8.",
"O.$.$.^ O.O.i 5 4 q < 9 n.N.N.H.).L.,X[.&XC.b.C D Q Q W L I I I Y Y U (./.p e ! ) ) i p +.%.+.+.+.+.",
"&.&.&.&.&.=.e 5 8 w 8 v C.C.C.H.).).$X[.,X`.Z.N g E Q P I K I I Y K K U @XG y :.;.:.~ i u.3.3.4.u.i.",
"1.&.=.&.#.i =.4 q 0 9 p.C.C.C.T._._.|.%X}._.D.q.g K E L I I I I K K I I m.m.( :.;.:.$.3.$.3.5.3.%.*.",
"=.1.&.=.V &.&.2 ) w 2 N.G.H.H.T.`.].OX}.>X).n.Z.M d T L K I I I Y K K K Y M.! ;.:.:.%.3.4.$.u.:.3.3.",
"&.&.&.@.&.=.#.2 9 ~ ] H.H.L.H.).'.<X+X|. Xg. .w.x.M : I I I I I K K K L K U u :.:.:.) u.4.3.$.*.:.0.",
"$.$.O.=.&.*.&.~ 4 a } L.L.).L.].).E.E.$XE.R.j.j.B.h * D K Y L Y K Y K Y K Y p :.:.t.%.u.4.4.4.O.*.*.",
"4.1.@.=.h.=.*.) :.~ f.).L.Z.o.' ' l.{.v.' k o.j.d.n.% * D L I I Y K Y K L Y c ;.:.:.%.4.i.4.3.#.0.*.",
"4.<.$.&.&.*.&.) _ ] Z.a.x j ` { d.d.4 s b a l d.k.g.m * ; D I I K Y Y L K Y / :.:.:.%.u.3.u.0.*.0.*.",
"<.<.&.=.1.&.&.) ;.~ a x z z ` ' l.v l ..x.Z.a  .f.k.N.f * : D F I L Y Y K S u :.:.t.$.u.h.3.3.+.*.h.",
") ^ O.*.&.5.&.y ( / k v ` ` ` ` l.k a ..e.F.4  .o.k.l.B.= - ; A S S S B B B 5 / / %./ p i / O.p %.V ",
";.;.) *.*.5.=.&.3.1.p v ` ` ` k ' ' s l a.D.4 ' z.G.o.{ B.= % & ; B B B B d V h.5.0.=.=.r.=.h.=.h.h.",
":.;.+.1.=.*.5.#.5.*.*.v z 8 3 3 k ` 8 4 x.a...l.z.J.` j ' B.v.. % & * d C f #.*.=.=.=.h.*.*.r.h.#.r.",
":.;.O.5.3.*.5.#.*.3.3.e 3 < 3 3 8 ` ` k k 4 n.z.k.X.d.8 j ' C.]. .= . . % 7 +.*.=.0.*.=.=.r.u.=.*.r.",
"_ ) / #.#.*.*.O.1.*.#.#.3 1 6 t / u z ` x l b l.' 8 ` k.8 j ' k.R.|.).e.s D.] *.*.*.*.*.8.*.*.0.0.0.",
"$.:.%.%.$.$.$.%.O.^ %.i #.#.+.O./ *.$.u z k l a o.' < z o.' k.j.j.f._.OXOXOX%XA.+.%.i +.+.0.#./ 0.+.",
"3.3.3.3.:.3.3.3.3.3.3.O.6.5.*.0.*.4.1.<.~ 6   + j o.' < ' k.l.l.k.k.o. .T.R._.].w.4.@.*.5.h.h.u.i.i.",
"<.3.3.3.3.3.3.3.3.3.u.^ 5.h.=.*.u.4.4.<.) 3   + a z ' ` k.l.l.l.k.l.d. .K.C.Z.K.{ 3.#.=.h.h.h.0.h.u.",
"4.3.3.3.3.3.4.4.3.u.u.i h.=.=.=.%.4.4.i.u l 2 a 3 k ' j j.l.l.l.j.j.j.k.n.l k  .$.u.$.r.h.h.=.u.i.h.",
") $./ $.%.+.+.) %.) %.i 5.=.#.r.y +.O.v b k v | < > z x.F.F.F.F.S.E.o.Z.a.l 4 [ %.%.p r.h.h.h.V 9.%.",
":.:.%.3.4.1.:.) :.t.t.+.h.=.*.#.+.6 3 v z k ' 4 O o a E.| | ..| | S.K.l.l.' x y.:.:.+.h.h.h.r.8.h.h.",
":.;.:.i.<.*.u.:.t.;.4.+.h.=.#.*.p 1 , l k l w.# O O , e.x.< , < 4 j ].' }  .b t.t.t.%.h.h.h.h.r.i.h.",
":.:.%.u.3.<.*.:.:._ :./ r.&.+.V 2 > >  .Y.U.A.$ o o > < v.@ @ @ @ X A.< a n.o.t.:.t.%.h.h.h.h.0.h.u.",
"$.:.) u.3.3.:.%.:.:.:./ 5.&.t l x.{.+X+XP.U.+X, o o > | @ , < < < < , , # > n k [ t.+.0.h.h.u.*.0.u.",
"#.#.+.$.u.3.3.) :.t.:.%.h.*.c k | 4 $ c.].[.P.# o o < F.a x k x k ' ' ` k k k v ~ t.+.h.h.h.+.9.9.*.",
"*.*.*.*.%.3.:.9.t._ t.) 5.3.e 4 U.XXoX[.b.A.W.$ o o o < , j a s j k z j $.<.( $.:.t.9.h.r.V i.i.i.u.",
"=.=.*.=.#.%.3._ :.:.:.+.0.i %.O.} 2 # 4 x [  .O o o o , 2 k 6 +./ / #.+./ 3.( :.t.t.%.h.+.u.i.u.i.u.",
"=.*.*.*.=.=.u ) :.t.:./ i 3.u.p # > # 3 k [ a.> o o o # 2 b x #.0.0.*.*.&.i ) :.:.t.%.y i.h.i.u.h.h.",
"+.+.%.+./ +.i / ~ ) ) y V +.%.p @ > > > k b s.6 o o o o > 2 a 6 O.O.i ^ +.^ y ) ) ) p y +.%.+.8.+.+.",
"3.3.3.5.3.3.*.) t.:.:.+.=.*.=.1 O > > @ , 2 a 2 o o + 2 4 4 4 x b ] 3.3.*.3.~ ;.:.t.9.h.h.*.0.*.r.h.",
"3.3.<.3.<.<.$.) :.:.t.%.5.=.r 4 # , + k l x x b  .m o 2 2 a 4 4 v | ] u.<.1.( ;.:.:.t.=.=.=.h.=.h.*.",
"<.3.1.<.$.<.<.) :.:.t.%.=.p # a , # 2 a k k x l b e.w.2 a 4 4 4 4 v [ 9.<.4.! -.:.:.%.&.*.0.h.*.0.0.",
"$.*.%.O.$.$.+.y ) ) $.i y.0 > a , # # , 4 4 < a k [ p.2 # $ 1 > # k s p *.$.w ( ) :.+.O.+.*.#.%.%.#.",
"&.&.&.&.#.*.y y ;.;._ ' l.4 # , < # $         + 2 a c 2 9 5 5 5 5 r r +.*.i q _ ;.:.i q *.*.:.*.3.$.",
",.&.&.$.&.i V ~ _ :.:./ +.%./ p i u y y y y e e i i p O.&.#.=.=.&.&.&.=.@.@.y -.:.:.%.%.%.3.3.3.*.3.",
"&.@.@.=./ #.=.%.:.:.t.%.3.$./ 1.<.<.<.,.&.:.,.,.$.&.=.&.=.#.&.&.=.&.&.V #.*.( t.:.:.9.3.*./ 3.3.3.3.",
"&.*.&.O.&.=.*.) :.:.;.%.4.4.$.$.*.3.3.<.3.<.&.&.&.&.&.&.=.@.=.*.&.&.+.=.=.r.) _ :.:.%.3.4.%./ 3.u.u.",
"O.O.p &.3.*.*.~ :.:.;.$.4.4.<.$.p $.O.%.y ( ! ! ( &.&.&.&.^ O.^ O.i @.=.*.3.) :.:.t.) 4.4.3.*.+.%.O.",
"<.<.@.=.&.&.&.$.:._ t.%.u.4.3.$.#.5.5.5.%.:.:.:.:.#.*.&.5.*.,.<.1.O.*.&.&.&.O.;.:.:.%.u.4.4.u.#.0.r.",
"<.<.$.=.&.&.*.%.:._ :.) 4.<.3.*.@.5.*.=.) :.:.:.$.*.5.1.*.<.4.1.<.O.*.=.1.5.) ;.:.:.%.i.3.3.3.*.=.=."
};
