/* XPM */
static char *fb697fb1eaf24610e3e798ef8ecabcb61y0Q2lPBENoOmIS0[] = {
/* columns rows colors chars-per-pixel */
"50 50 110 2 ",
"   c #3E3E49",
".  c #403F4B",
"X  c #3F404C",
"o  c #41404D",
"O  c #444551",
"+  c #464954",
"@  c #494B56",
"#  c #4A4D59",
"$  c #4D525D",
"%  c #4E5D5F",
"&  c #4F5661",
"*  c #4E5E61",
"=  c #515662",
"-  c #525B64",
";  c #565D69",
":  c #585F6B",
">  c #4F6163",
",  c #516264",
"<  c #55646A",
"1  c #59636D",
"2  c #56696D",
"3  c #586B6E",
"4  c #5B6571",
"5  c #5D6B74",
"6  c #5D7276",
"7  c #5E7479",
"8  c #616C77",
"9  c #616E79",
"0  c #62727C",
"q  c #62797E",
"w  c #667682",
"e  c #687680",
"r  c #667B83",
"t  c #697B85",
"y  c #6B7E89",
"u  c #678288",
"i  c #6C858D",
"p  c #6D888F",
"a  c #70838E",
"s  c #6E8690",
"d  c #6E8A91",
"f  c #708590",
"g  c #718C95",
"h  c #758E99",
"j  c #729097",
"k  c #74939B",
"l  c #79969D",
"z  c #79989F",
"x  c #7797A0",
"c  c #7997A1",
"v  c #7798A1",
"b  c #7A9CA5",
"n  c #7C9FA8",
"m  c #7DA1AA",
"M  c #809DA7",
"N  c #819FAB",
"B  c #81A5AE",
"V  c #82A7B1",
"C  c #85A9B3",
"Z  c #83A9B4",
"A  c #83AAB4",
"S  c #84A9B4",
"D  c #84AAB4",
"F  c #84ABB6",
"G  c #85ACB6",
"H  c #86ADB7",
"J  c #86ADB8",
"K  c #86AEB8",
"L  c #88AEB9",
"P  c #8AAFB8",
"I  c #88AFBA",
"U  c #87B0BA",
"Y  c #87B1BB",
"T  c #88B2BC",
"R  c #8BB3BC",
"E  c #8AB2BD",
"W  c #8CB2BD",
"Q  c #8BB4BD",
"!  c #8AB4BE",
"~  c #8DB4BE",
"^  c #8CB4BF",
"/  c #8CB5C0",
"(  c #8CB6C1",
")  c #8CB7C2",
"_  c #8EB7C3",
"`  c #8DB8C2",
"'  c #8EB8C2",
"]  c #8DB8C4",
"[  c #8EB9C4",
"{  c #8EB9C5",
"}  c #8FB9C5",
"|  c #8EBAC6",
" . c #8FBAC6",
".. c #90BBC6",
"X. c #90BDC8",
"o. c #90BDC9",
"O. c #92BDC8",
"+. c #91BECA",
"@. c #93C2CE",
"#. c #94C1CD",
"$. c #95C3D0",
"%. c #96C4D1",
"&. c #96C5D1",
"*. c #96C7D3",
"=. c #97C7D4",
"-. c #98C5D1",
";. c #98C7D3",
":. c #98C7D5",
">. c #97C8D4",
",. c #99C9D6",
/* pixels */
"9 t t w w w w w w w w r w w q 4 @ 9 e e w w w w w w w w w w t t = # w w w w w w w w w w w r w w w O ",
"b W b Q o.&.' G E Z D G E | b i O C J b Q #.&.E J E V A Y ~ W B 5 & ) n V Q %.>.A P I F A Q ] A V $ ",
"b t % k &.| g b j i g m P i , - o B 5 - B ,.E j b j i k m ' 6 , $ & J * < _ &.m h b g s x m Q > , + ",
"b n u @.| j b k i j m J -.P 0 5 O A h s &.Y j b g i k m E -.n q ; & ) u b &.V k n g i b m | %.d t @ ",
"b ' &.| j b k i g m J &.o.m n 9 O A ' >.J j b g i k m Q &.' m n ; & _ | >.m k m s d v m | >.Y m x # ",
"b ,.| j b k i j n J >.o.m n j 4 O A >.E j m g i k m E >.' m n d - & | &.A j b d i l m | >.Q m m i @ ",
"b | k b j i d m J ,.o.m m g i 5 O A Y g b g i k m Q >.) m m d i - & | m k b s i b m | &.E m v d i @ ",
"b n b j i g m Y ,.o.m m j i j 0 O A k m g i k m Q &.) m m d i v 1 & Q j m s s v m | =.E m b i i k $ ",
"b G k i g m F -.o.m n k p j Z t O A B g i j m Q >.| m b d i k A 4 & _ b d s v m ' &.P m b i i b A $ ",
"b n i g m G -.O.B n g i j m  .u O G k i b m Q =.) m m d i v A +.4 & Q s s x m | >.Y m m i i b F _ $ ",
"b b g m G -.O.m n j i j m O.A 0 O A d k n W =._ m m d i b m o.m : = _ i x m | =.Q m m i i n G | m & ",
"b m n F -.O.B n j i j B | A v 5 O V b B Q &.' m b d i x A @.m k - - E v m | &.E m b i i b F | m g + ",
"b J F -.O.B n j i j m o.F k i 1 O D B W -._ m n g i k B o.m v s : - _ n ' &.Q m b d i b J ..B k u @ ",
"b E R o.m n j i k m O.Z k i r 0 + G G E ' m b g i k F #.m k u i 1 = _ B | P m m i i b A | n h t i # ",
"b f < g n j i j m ..F b i 5 - - @ D 7 , k n j i k D o.B k i 3 , $ = Q < 5 b b i i b A | B k i , < + ",
"h M < g a t i k P n g t t i , 5 + b i 2 k i r i k G b f t i t 3 - $ B q 7 k u t f b G z f t i 5 5 + ",
"+ . .   o   o X   o o o .   O   . . . o o o o o o     O + + . . o   o X o o o o o     O O . . . .   ",
"g h g g h g g q . y g g g g g g a g g g g g g g 4 @ s h g g g g g g g g g g g g g = = g g d g g g g ",
"P V n J R | g g . n V g P %.=.E A P N m G Y Y k t @ E n x J -.:.A A G m B P E A l 1 ; ) k m Q =.&.V ",
"h i j n P h * - . n 7 * n =.T j b g i k m ' u * = @ P , < P :.B j m i i k m _ 5 - + ; A * 3 o.&.b k ",
"i h n J ,._ u w . N n l >.J g m g i j m | &.A i 5 @ T j V -.B k m i i b m @.&.b i * ; _ s Y &.v c b ",
"g n J =.o.m n w o N ..=.E d m d i k m E >.) m m 5 @ E | -.B h b p i b m ' *.Y m b = ; | @.&.b k b i ",
"b J %.o.m m h 0 O N =.J j n d i k m Q =.) m b j 1 @ E >.m j b s i z m ' &.R m v s $ ; o.#.v x b i s ",
"I ,.o.m m g i e o n J g m d s k m _ =.) m n s i 4 @ E V k n s i b m | &.P m m p i & ; | v v v s i b ",
"=.+.m n j i j i . n b n g i j m Q &.W m m g i b 9 @ J k b d i b m ' ;.R m b p i b & - E l m i i b V ",
"+.m m j i v B h . n B g i k n ) ,._ m m g i k G t @ E b f i v m | *.R m b i i b Z 1 ; ' z i p b B @.",
"m m j i k B o.g o n k i k m Q =.' m m g i l B o.0 @ J g i v m | >.E m m i i b J o.- ; ~ i i n B o.&.",
"m d i k B ..F t o M k k m ~ >.' m b g i k Z | Z 8 @ R s b m | :.G m b d i b J ' m = - R p m B #.&.F ",
"j p j m o.D k 0 o n B m Q *.~ m m g i j F O.B k 1 @ E b m o.&.R m b i i b G ..n d & ; E b m #.@.D b ",
"i k B #.D l i 9   n D E *.' m m g i k G o.m k i 1 @ R m | -.R m b d i b G o.m g i & ; ' B #.@.F m b ",
"j m ' A z i 6 w o m G b ' m m g i z A o.V k u 7 5 # Q m D G n b s i n G ' m g r w - ;  .b R Z n b u ",
"m @.A z i 5 % - X m 7 % d m g i k B o.B j i 3 % & @ J , > b b i i l F | m j i , % # < D % < m b i s ",
"b k i 0 0 t - 1 o f i - i y 0 t i b g i 0 w w ; : + l w 1 i t 0 y g b f t 0 w 5 4 - - c 5 9 s w 0 i ",
"o   . o o . o o   o . . o o . . X o . o . . . . o   . . . . o . X   o . O   o o O o . . . . . .     ",
"i n b b n n n n b b b b b b b 0 o k b b b b b b b b b b n b b m < $ c b b b b n b b b b b b b c b @ ",
"n m t D o.-.D m F b l F F G y w O D k u G &.-.N D V c b F G m d 4 = _ f g P -.&.b A B x b J I k d $ ",
"b u * n :.D j b d i x m | i * - O V 5 > P -.m z b s i b m #.7 > $ = J - 3 #.@.k v v i s b A ] 2 , + ",
"b D n :.F j n g i k m ) -.E i 0 O D b D @.B k m s i b m o.-.F d ; & _ l Q @.x b v d s n A +.%.b g $ ",
"b o.-.G j b g i x m ) >.Q m b 5 + G #.-.B k b i s b m o.&.G m b - = _ o.@.k b k i d n V +.%.V n k $ ",
"b -.J g n g i b n | &._ m m d 4 o G @.m z b i i b m o.-.Y m b i - - ' @.k b b i d m m #.&.V n x i @ ",
"b T j m d d k m ) =.Q m b d i 5 O D B l b i i z m #.&.G m b i i : - ) v v b i d b m %.&.A n v i g @ ",
"b m b g i v m ) >.Q m m d i v w O D M b i i b B #.-.G m b d s b 4 * Q v l i d m m %.=.m m x i g b @ ",
"b A g s k m ) >.) m b d s v m d + G m i i b m O.#.J m b i i b R 5 & ) v i d m m &.&.A m b d h n E $ ",
"b n s k m ] >.Q n b d i x A +.r + G j i m m O.-.J m b i i m R ' : & Q i d b m @.=.A n k i d b ) E $ ",
"n b l n ) >.Q m m s i x A +.m 0 O A j b m #.*.J m b i d b R ~ m : & ) s m m #.%.m m v i g m E Y b @ ",
"N D n _ =.Q m b s i x F | m h 5 O A m m | &.Y m b i i b R ' m d = & ) b m %.&.A m x i d m E Q b i @ ",
"n G ~ &.Q m m i i v A +.m k i 5 O Z m @.*.G m z i i m G _ m d i - & ) m &.>.A m v i d m _ Q m d i @ ",
"b E g Q m m s i b A | m k u 5 5 O Z m j Y m m i p m G | m d r q ; & | x m m m v i d b ) Q b i 7 r @ ",
"b i - i n g i b F O.V h i 5 % - o D 6 - k b i i b P | n g i 3 - = & _ - < b v i g n _ E b i u < - O ",
"w w - 0 5 5 9 0 i t w 8 8 9 - - . t 0 ; q 8 5 0 w a w 9 5 9 5 ; & @ y 5 4 0 9 9 0 w i w 9 5 9 1 1 + "
};
